# xmcd CD database file
#
# Track frame offsets:
#	150
#	15055
#	22324
#
# Disc length: 495 seconds
#
# Revision: 3
# Processed by: cddbd v1.5.1PL0 Copyright (c) Steve Scherf et al.
# Submitted via: CDex 1.51
#
DISCID=1601ed03
DTITLE=Studio Mebius - 友達以上恋人未満 特典マキシシングル
DYEAR=2004
DGENRE=Game
TTITLE0=中山マミ - 友達以上恋人未満
TTITLE1=中山マミ - 友達以上恋人未満(ShortVer.)
TTITLE2=友達以上恋人未満(カラオケ)
EXTD=YEAR: 2004
EXTT0=
EXTT1=
EXTT2=
PLAYORDER=
